<svg viewBox="0 0 128 26" xmlns="http://www.w3.org/2000/svg" xmlns:xlink="http://www.w3.org/1999/xlink" width="128.000000" height="26.000000" fill="none" customFrame="#000000">
	<rect id="Logo" width="128.000000" height="26.000000" x="0.000000" y="0.000000" fill="rgb(255,255,255)" fill-opacity="0" />
	<path id="devfinder" d="M11.284 20.995L10.816 20.995C10.6773 21.2897 10.504 21.5757 10.296 21.853C10.1053 22.113 9.84533 22.347 9.516 22.555C9.204 22.763 8.82267 22.9277 8.372 23.049C7.93867 23.1703 7.41 23.231 6.786 23.231C5.98867 23.231 5.24333 23.0923 4.55 22.815C3.874 22.5203 3.276 22.0957 2.756 21.541C2.25333 20.969 1.85467 20.2757 1.56 19.461C1.28267 18.6463 1.144 17.7103 1.144 16.653L1.144 16.185C1.144 15.145 1.29133 14.2177 1.586 13.403C1.898 12.5883 2.314 11.9037 2.834 11.349C3.37133 10.777 3.98667 10.3437 4.68 10.049C5.39067 9.75433 6.136 9.607 6.916 9.607C7.956 9.607 8.77933 9.80633 9.386 10.205C9.99267 10.5863 10.4693 11.1323 10.816 11.843L11.284 11.843L11.284 4.667L14.56 4.667L14.56 22.867L11.284 22.867L11.284 20.995ZM7.852 20.111C8.87467 20.111 9.698 19.7903 10.322 19.149C10.9633 18.4903 11.284 17.6323 11.284 16.575L11.284 16.263C11.284 15.2057 10.9633 14.3563 10.322 13.715C9.698 13.0563 8.87467 12.727 7.852 12.727C6.82933 12.727 5.99733 13.0477 5.356 13.689C4.732 14.313 4.42 15.171 4.42 16.263L4.42 16.575C4.42 17.667 4.732 18.5337 5.356 19.175C5.99733 19.799 6.82933 20.111 7.852 20.111ZM20.8339 17.485C20.8513 17.8663 20.9379 18.2217 21.0939 18.551C21.2673 18.863 21.4926 19.1403 21.7699 19.383C22.0646 19.6083 22.3939 19.7903 22.7579 19.929C23.1393 20.0503 23.5379 20.111 23.9539 20.111C24.7686 20.111 25.3926 19.9723 25.8259 19.695C26.2593 19.4003 26.5713 19.0537 26.7619 18.655L29.5699 20.215C29.4139 20.5443 29.1973 20.891 28.9199 21.255C28.6426 21.6017 28.2786 21.9223 27.8279 22.217C27.3946 22.5117 26.8573 22.7543 26.2159 22.945C25.5919 23.1357 24.8553 23.231 24.0059 23.231C23.0353 23.231 22.1513 23.075 21.3539 22.763C20.5566 22.451 19.8633 22.0003 19.2739 21.411C18.7019 20.8217 18.2513 20.1023 17.9219 19.253C17.6099 18.4037 17.4539 17.4417 17.4539 16.367L17.4539 16.211C17.4539 15.223 17.6186 14.3217 17.9479 13.507C18.2946 12.6923 18.7626 11.999 19.3519 11.427C19.9413 10.855 20.6259 10.413 21.4059 10.101C22.2033 9.77167 23.0526 9.607 23.9539 9.607C25.0633 9.607 26.0166 9.80633 26.8139 10.205C27.6113 10.5863 28.2699 11.0803 28.7899 11.687C29.3099 12.2763 29.6913 12.935 29.9339 13.663C30.1766 14.3737 30.2979 15.067 30.2979 15.743L30.2979 17.485L20.8339 17.485ZM23.9279 12.571C23.0959 12.571 22.4199 12.7877 21.8999 13.221C21.3799 13.637 21.0419 14.1223 20.8859 14.677L26.9699 14.677C26.8659 14.0703 26.5366 13.5677 25.9819 13.169C25.4446 12.7703 24.7599 12.571 23.9279 12.571ZM32.9578 9.971L36.4938 9.971L39.5358 21.307L40.0038 21.307L43.0458 9.971L46.5818 9.971L42.8898 22.867L36.6498 22.867L32.9578 9.971ZM57.7438 6.123C57.7438 5.79367 57.8044 5.48167 57.9258 5.187C58.0644 4.875 58.2464 4.615 58.4718 4.407C58.6971 4.18167 58.9571 4.00833 59.2518 3.887C59.5464 3.74833 59.8671 3.679 60.2138 3.679C60.8898 3.679 61.4618 3.92167 61.9298 4.407C62.4151 4.875 62.6578 5.447 62.6578 6.123C62.6578 6.46967 62.5884 6.79033 62.4498 7.085C62.3284 7.37967 62.1551 7.63967 61.9298 7.865C61.7218 8.09033 61.4618 8.27233 61.1498 8.411C60.8551 8.53233 60.5431 8.593 60.2138 8.593C59.8671 8.593 59.5464 8.53233 59.2518 8.411C58.9571 8.27233 58.6971 8.09033 58.4718 7.865C58.2464 7.63967 58.0644 7.37967 57.9258 7.085C57.8044 6.79033 57.7438 6.46967 57.7438 6.123ZM48.3838 9.971L51.4258 9.971L51.4258 7.319C51.4258 6.57367 51.6771 5.94967 52.1798 5.447C52.6824 4.927 53.3064 4.667 54.0518 4.667L56.4958 4.667L56.4958 7.787L55.4038 7.787C54.9358 7.787 54.7018 8.047 54.7018 8.567L54.7018 9.971L61.8518 9.971L61.8518 22.867L58.5758 22.867L58.5758 13.091L54.7018 13.091L54.7018 22.867L51.4258 22.867L51.4258 13.091L48.3838 13.091L48.3838 9.971ZM68.9837 22.867L65.7077 22.867L65.7077 9.971L68.9837 9.971L68.9837 11.895L69.4517 11.895C69.7464 11.167 70.223 10.6037 70.8817 10.205C71.5404 9.80633 72.3117 9.607 73.1957 9.607C73.8197 9.607 74.4004 9.711 74.9377 9.919C75.4924 10.1097 75.9777 10.413 76.3937 10.829C76.8097 11.245 77.1304 11.7737 77.3557 12.415C77.5984 13.0563 77.7197 13.819 77.7197 14.703L77.7197 22.867L74.4437 22.867L74.4437 15.535C74.4437 14.6163 74.2184 13.897 73.7677 13.377C73.3344 12.8397 72.7017 12.571 71.8697 12.571C70.899 12.571 70.171 12.9003 69.6857 13.559C69.2177 14.2003 68.9837 15.067 68.9837 16.159L68.9837 22.867ZM90.8836 20.995L90.4156 20.995C90.2769 21.2897 90.1036 21.5757 89.8956 21.853C89.7049 22.113 89.4449 22.347 89.1156 22.555C88.8036 22.763 88.4223 22.9277 87.9716 23.049C87.5383 23.1703 87.0096 23.231 86.3856 23.231C85.5883 23.231 84.8429 23.0923 84.1496 22.815C83.4736 22.5203 82.8756 22.0957 82.3556 21.541C81.8529 20.969 81.4543 20.2757 81.1596 19.461C80.8823 18.6463 80.7436 17.7103 80.7436 16.653L80.7436 16.185C80.7436 15.145 80.8909 14.2177 81.1856 13.403C81.4976 12.5883 81.9136 11.9037 82.4336 11.349C82.9709 10.777 83.5863 10.3437 84.2796 10.049C84.9903 9.75433 85.7356 9.607 86.5156 9.607C87.5556 9.607 88.3789 9.80633 88.9856 10.205C89.5923 10.5863 90.0689 11.1323 90.4156 11.843L90.8836 11.843L90.8836 4.667L94.1596 4.667L94.1596 22.867L90.8836 22.867L90.8836 20.995ZM87.4516 20.111C88.4743 20.111 89.2976 19.7903 89.9216 19.149C90.5629 18.4903 90.8836 17.6323 90.8836 16.575L90.8836 16.263C90.8836 15.2057 90.5629 14.3563 89.9216 13.715C89.2976 13.0563 88.4743 12.727 87.4516 12.727C86.4289 12.727 85.5969 13.0477 84.9556 13.689C84.3316 14.313 84.0196 15.171 84.0196 16.263L84.0196 16.575C84.0196 17.667 84.3316 18.5337 84.9556 19.175C85.5969 19.799 86.4289 20.111 87.4516 20.111ZM100.434 17.485C100.451 17.8663 100.538 18.2217 100.694 18.551C100.867 18.863 101.092 19.1403 101.37 19.383C101.664 19.6083 101.994 19.7903 102.358 19.929C102.739 20.0503 103.138 20.111 103.554 20.111C104.368 20.111 104.992 19.9723 105.426 19.695C105.859 19.4003 106.171 19.0537 106.362 18.655L109.17 20.215C109.014 20.5443 108.797 20.891 108.52 21.255C108.242 21.6017 107.878 21.9223 107.428 22.217C106.994 22.5117 106.457 22.7543 105.816 22.945C105.192 23.1357 104.455 23.231 103.606 23.231C102.635 23.231 101.751 23.075 100.954 22.763C100.156 22.451 99.4629 22.0003 98.8735 21.411C98.3015 20.8217 97.8509 20.1023 97.5215 19.253C97.2095 18.4037 97.0535 17.4417 97.0535 16.367L97.0535 16.211C97.0535 15.223 97.2182 14.3217 97.5475 13.507C97.8942 12.6923 98.3622 11.999 98.9515 11.427C99.5409 10.855 100.226 10.413 101.006 10.101C101.803 9.77167 102.652 9.607 103.554 9.607C104.663 9.607 105.616 9.80633 106.414 10.205C107.211 10.5863 107.87 11.0803 108.39 11.687C108.91 12.2763 109.291 12.935 109.534 13.663C109.776 14.3737 109.898 15.067 109.898 15.743L109.898 17.485L100.434 17.485ZM103.528 12.571C102.696 12.571 102.02 12.7877 101.5 13.221C100.98 13.637 100.642 14.1223 100.486 14.677L106.57 14.677C106.466 14.0703 106.136 13.5677 105.582 13.169C105.044 12.7703 104.36 12.571 103.528 12.571ZM112.843 9.971L118.303 9.971L118.303 11.843L118.771 11.843C119.014 11.1323 119.421 10.5863 119.993 10.205C120.583 9.80633 121.285 9.607 122.099 9.607C123.382 9.607 124.413 10.0143 125.193 10.829C125.973 11.6263 126.363 12.8483 126.363 14.495L126.363 15.067L122.983 15.379L122.983 15.015C122.983 14.3043 122.801 13.741 122.437 13.325C122.073 12.8917 121.527 12.675 120.799 12.675C120.071 12.675 119.499 12.9263 119.083 13.429C118.667 13.9317 118.459 14.651 118.459 15.587L118.459 19.747L121.423 19.747L121.423 22.867L112.531 22.867L112.531 19.747L115.183 19.747L115.183 13.091L112.843 13.091L112.843 9.971Z" fill="rgb(255,255,255)" fill-rule="nonzero" />
</svg>
