<svg viewBox="0 0 20 19.8516" xmlns="http://www.w3.org/2000/svg" xmlns:xlink="http://www.w3.org/1999/xlink" width="20.000000" height="19.851624" fill="none" customFrame="#000000">
	<rect id="Company Icon" width="19.999981" height="19.851648" x="0.000000" y="-0.000061" fill="rgb(255,255,255)" fill-opacity="0" />
	<path id="Shape" d="M10.8583 1.40994L1.7 0.0182739C1.275 -0.0483927 0.841666 0.0682738 0.516666 0.343274C0.191666 0.626607 0 1.03494 0 1.45994L0 19.0183C0 19.4766 0.375 19.8516 0.833333 19.8516L3.54166 19.8516L3.54166 15.4766C3.54166 14.6683 4.19166 14.0183 5 14.0183L7.08333 14.0183C7.89166 14.0183 8.54166 14.6683 8.54166 15.4766L8.54166 19.8516L12.0833 19.8516L12.0833 2.8516C12.0833 2.13494 11.5667 1.52661 10.8583 1.40994ZM4.58333 12.1433L3.33333 12.1433C2.98833 12.1433 2.70833 11.8633 2.70833 11.5183C2.70833 11.1733 2.98833 10.8933 3.33333 10.8933L4.58333 10.8933C4.92833 10.8933 5.20833 11.1733 5.20833 11.5183C5.20833 11.8633 4.92833 12.1433 4.58333 12.1433ZM3.33333 9.64326L4.58333 9.64326C4.92833 9.64326 5.20833 9.36327 5.20833 9.01826C5.20833 8.67327 4.92833 8.39327 4.58333 8.39327L3.33333 8.39327C2.98833 8.39327 2.70833 8.67327 2.70833 9.01826C2.70833 9.36327 2.98833 9.64326 3.33333 9.64326ZM4.58333 7.14327L3.33333 7.14327C2.98833 7.14327 2.70833 6.86327 2.70833 6.51827C2.70833 6.17327 2.98833 5.89327 3.33333 5.89327L4.58333 5.89327C4.92833 5.89327 5.20833 6.17327 5.20833 6.51827C5.20833 6.86327 4.92833 7.14327 4.58333 7.14327ZM3.33333 4.64327L4.58333 4.64327C4.92833 4.64327 5.20833 4.36327 5.20833 4.01827C5.20833 3.67327 4.92833 3.39327 4.58333 3.39327L3.33333 3.39327C2.98833 3.39327 2.70833 3.67327 2.70833 4.01827C2.70833 4.36327 2.98833 4.64327 3.33333 4.64327ZM8.74999 12.1433L7.49999 12.1433C7.15499 12.1433 6.87499 11.8633 6.87499 11.5183C6.87499 11.1733 7.15499 10.8933 7.49999 10.8933L8.74999 10.8933C9.09499 10.8933 9.37499 11.1733 9.37499 11.5183C9.37499 11.8633 9.09499 12.1433 8.74999 12.1433ZM7.49999 9.64326L8.74999 9.64326C9.09499 9.64326 9.37499 9.36327 9.37499 9.01826C9.37499 8.67327 9.09499 8.39327 8.74999 8.39327L7.49999 8.39327C7.15499 8.39327 6.87499 8.67327 6.87499 9.01826C6.87499 9.36327 7.15499 9.64326 7.49999 9.64326ZM8.74999 7.14327L7.49999 7.14327C7.15499 7.14327 6.87499 6.86327 6.87499 6.51827C6.87499 6.17327 7.15499 5.89327 7.49999 5.89327L8.74999 5.89327C9.09499 5.89327 9.37499 6.17327 9.37499 6.51827C9.37499 6.86327 9.09499 7.14327 8.74999 7.14327ZM7.49999 4.64327L8.74999 4.64327C9.09499 4.64327 9.37499 4.36327 9.37499 4.01827C9.37499 3.67327 9.09499 3.39327 8.74999 3.39327L7.49999 3.39327C7.15499 3.39327 6.87499 3.67327 6.87499 4.01827C6.87499 4.36327 7.15499 4.64327 7.49999 4.64327Z" fill="rgb(20,29,47)" fill-rule="evenodd" />
	<path id="Shape" d="M12.9166 7.6441L18.85 8.8866C19.5308 9.03744 20 9.62327 20 10.3116L20 18.3933C20 19.1974 19.3458 19.8516 18.5416 19.8516L12.9166 19.8516L12.9166 7.6441ZM15.625 17.3516L16.875 17.3516C17.22 17.3516 17.5 17.0716 17.5 16.7266C17.5 16.3816 17.22 16.1016 16.875 16.1016L15.625 16.1016C15.28 16.1016 15 16.3816 15 16.7266C15 17.0716 15.28 17.3516 15.625 17.3516ZM16.875 14.8516L15.625 14.8516C15.28 14.8516 15 14.5716 15 14.2266C15 13.8816 15.28 13.6016 15.625 13.6016L16.875 13.6016C17.22 13.6016 17.5 13.8816 17.5 14.2266C17.5 14.5716 17.22 14.8516 16.875 14.8516ZM15.625 12.3516L16.875 12.3516C17.22 12.3516 17.5 12.0716 17.5 11.7266C17.5 11.3816 17.22 11.1016 16.875 11.1016L15.625 11.1016C15.28 11.1016 15 11.3816 15 11.7266C15 12.0716 15.28 12.3516 15.625 12.3516Z" fill="rgb(20,29,47)" fill-rule="evenodd" />
</svg>
