<svg viewBox="0 0 19.991 19.9451" xmlns="http://www.w3.org/2000/svg" xmlns:xlink="http://www.w3.org/1999/xlink" width="19.990967" height="19.945068" fill="none" customFrame="#000000">
	<rect id="Blog Icon" width="19.990971" height="19.944937" x="0.000000" y="0.000000" fill="rgb(255,255,255)" fill-opacity="0" />
	<path id="Path" d="M7.40416 5.01207C5.04862 7.44921 5.56264 11.4937 8.26088 13.2854C8.34979 13.3445 8.46807 13.3328 8.54444 13.2582C9.11248 12.7031 9.59303 12.1655 10.0138 11.4817C10.0782 11.3771 10.0381 11.2414 9.93014 11.1829C9.51858 10.9599 9.10905 10.5418 8.8785 10.1002L8.87823 10.1003C8.60205 9.55042 8.50803 8.93398 8.65424 8.29734C8.6544 8.29738 8.65455 8.29742 8.65471 8.29742C8.82295 7.48234 9.69799 6.72414 10.3663 6.02293C10.3649 6.02246 10.3635 6.02195 10.3621 6.02148L12.8662 3.46578C13.864 2.44731 15.5054 2.43891 16.5137 3.44715C17.5321 4.445 17.549 6.09468 16.5511 7.11312L15.0344 8.67281C14.9642 8.74499 14.9414 8.85031 14.9743 8.9455C15.3235 9.9582 15.4094 11.3861 15.1754 12.465C15.1688 12.4951 15.2061 12.5149 15.2277 12.4928L18.4557 9.19816C20.5179 7.09347 20.5004 3.66676 18.4168 1.58324C16.2906 -0.543044 12.829 -0.525348 10.7246 1.6225L7.41709 4.99824C7.41272 5.00285 7.40858 5.00754 7.40416 5.01207Z" fill="rgb(255,255,255)" fill-rule="nonzero" />
	<path id="Path" d="M13.439 13.7494C13.4389 13.7495 13.4388 13.7496 13.4388 13.7497C13.4409 13.7489 13.4428 13.7481 13.4449 13.7472C14.1036 12.5425 14.2333 11.1609 13.9246 9.81407L13.9232 9.81552L13.9217 9.81485C13.6285 8.61528 12.8241 7.42411 11.7316 6.69072C11.6376 6.62763 11.4875 6.63493 11.3995 6.70611C10.8461 7.15357 10.3044 7.72736 9.94697 8.45958C9.89083 8.57454 9.93287 8.71263 10.0435 8.77685C10.4583 9.01767 10.8329 9.37024 11.0837 9.83833L11.0841 9.83806C11.2796 10.1687 11.4722 10.7961 11.3474 11.4703C11.3474 11.4703 11.3472 11.4703 11.3472 11.4703C11.2308 12.3641 10.3282 13.1839 9.61068 13.9227L9.61103 13.923C9.06486 14.4815 7.67646 15.8969 7.12052 16.4649C6.12267 17.4833 4.47299 17.5002 3.45455 16.5023C2.43612 15.5045 2.41928 13.8548 3.41713 12.8363L4.93834 11.272C5.00728 11.2011 5.03072 11.098 5.00006 11.004C4.66228 9.96763 4.56975 8.57189 4.78295 7.49427C4.78889 7.46423 4.75193 7.44505 4.73049 7.46693L1.551 10.712C-0.53228 12.8383 -0.514624 16.3002 1.5903 18.4051C3.71647 20.4883 7.16049 20.4531 9.24369 18.3269C9.9674 17.5174 13.0654 14.6491 13.439 13.7494Z" fill="rgb(255,255,255)" fill-rule="nonzero" />
</svg>
