<svg viewBox="0 0 20 19.8516" xmlns="http://www.w3.org/2000/svg" xmlns:xlink="http://www.w3.org/1999/xlink" width="20.000000" height="19.851562" fill="none" customFrame="#000000">
	<rect id="Company Icon" width="19.999981" height="19.851648" x="0.000000" y="0.000000" fill="rgb(255,255,255)" fill-opacity="0" />
	<path id="Shape" d="M10.8583 1.41L1.7 0.0183349C1.275 -0.0483317 0.841666 0.0683349 0.516666 0.343335C0.191666 0.626668 0 1.035 0 1.46L0 19.0183C0 19.4766 0.375 19.8516 0.833333 19.8516L3.54166 19.8516L3.54166 15.4767C3.54166 14.6683 4.19166 14.0183 5 14.0183L7.08333 14.0183C7.89166 14.0183 8.54166 14.6683 8.54166 15.4767L8.54166 19.8516L12.0833 19.8516L12.0833 2.85167C12.0833 2.135 11.5667 1.52667 10.8583 1.41ZM4.58333 12.1433L3.33333 12.1433C2.98833 12.1433 2.70833 11.8633 2.70833 11.5183C2.70833 11.1733 2.98833 10.8933 3.33333 10.8933L4.58333 10.8933C4.92833 10.8933 5.20833 11.1733 5.20833 11.5183C5.20833 11.8633 4.92833 12.1433 4.58333 12.1433ZM3.33333 9.64333L4.58333 9.64333C4.92833 9.64333 5.20833 9.36333 5.20833 9.01833C5.20833 8.67333 4.92833 8.39333 4.58333 8.39333L3.33333 8.39333C2.98833 8.39333 2.70833 8.67333 2.70833 9.01833C2.70833 9.36333 2.98833 9.64333 3.33333 9.64333ZM4.58333 7.14333L3.33333 7.14333C2.98833 7.14333 2.70833 6.86333 2.70833 6.51833C2.70833 6.17333 2.98833 5.89333 3.33333 5.89333L4.58333 5.89333C4.92833 5.89333 5.20833 6.17333 5.20833 6.51833C5.20833 6.86333 4.92833 7.14333 4.58333 7.14333ZM3.33333 4.64333L4.58333 4.64333C4.92833 4.64333 5.20833 4.36333 5.20833 4.01833C5.20833 3.67333 4.92833 3.39333 4.58333 3.39333L3.33333 3.39333C2.98833 3.39333 2.70833 3.67333 2.70833 4.01833C2.70833 4.36333 2.98833 4.64333 3.33333 4.64333ZM8.74999 12.1433L7.49999 12.1433C7.15499 12.1433 6.87499 11.8633 6.87499 11.5183C6.87499 11.1733 7.15499 10.8933 7.49999 10.8933L8.74999 10.8933C9.09499 10.8933 9.37499 11.1733 9.37499 11.5183C9.37499 11.8633 9.09499 12.1433 8.74999 12.1433ZM7.49999 9.64333L8.74999 9.64333C9.09499 9.64333 9.37499 9.36333 9.37499 9.01833C9.37499 8.67333 9.09499 8.39333 8.74999 8.39333L7.49999 8.39333C7.15499 8.39333 6.87499 8.67333 6.87499 9.01833C6.87499 9.36333 7.15499 9.64333 7.49999 9.64333ZM8.74999 7.14333L7.49999 7.14333C7.15499 7.14333 6.87499 6.86333 6.87499 6.51833C6.87499 6.17333 7.15499 5.89333 7.49999 5.89333L8.74999 5.89333C9.09499 5.89333 9.37499 6.17333 9.37499 6.51833C9.37499 6.86333 9.09499 7.14333 8.74999 7.14333ZM7.49999 4.64333L8.74999 4.64333C9.09499 4.64333 9.37499 4.36333 9.37499 4.01833C9.37499 3.67333 9.09499 3.39333 8.74999 3.39333L7.49999 3.39333C7.15499 3.39333 6.87499 3.67333 6.87499 4.01833C6.87499 4.36333 7.15499 4.64333 7.49999 4.64333Z" fill="rgb(255,255,255)" fill-rule="evenodd" />
	<path id="Shape" d="M12.9166 7.64404L18.85 8.88654C19.5308 9.03737 20 9.62321 20 10.3115L20 18.3932C20 19.1974 19.3458 19.8515 18.5416 19.8515L12.9166 19.8515L12.9166 7.64404ZM15.625 17.3515L16.875 17.3515C17.22 17.3515 17.5 17.0715 17.5 16.7265C17.5 16.3815 17.22 16.1015 16.875 16.1015L15.625 16.1015C15.28 16.1015 15 16.3815 15 16.7265C15 17.0715 15.28 17.3515 15.625 17.3515ZM16.875 14.8515L15.625 14.8515C15.28 14.8515 15 14.5715 15 14.2265C15 13.8815 15.28 13.6015 15.625 13.6015L16.875 13.6015C17.22 13.6015 17.5 13.8815 17.5 14.2265C17.5 14.5715 17.22 14.8515 16.875 14.8515ZM15.625 12.3515L16.875 12.3515C17.22 12.3515 17.5 12.0715 17.5 11.7265C17.5 11.3815 17.22 11.1015 16.875 11.1015L15.625 11.1015C15.28 11.1015 15 11.3815 15 11.7265C15 12.0715 15.28 12.3515 15.625 12.3515Z" fill="rgb(255,255,255)" fill-rule="evenodd" />
</svg>
